<svg width="1119.60911" height="699" xmlns="http://www.w3.org/2000/svg" version="1.1">
 <g>
  <title>Layer 1</title>
  <path fill-rule="nonZero" fill="#f2f2f2" d="m292.60911,0c117.63564,0 213,95.36436 213,213c0,117.63564 -95.36436,213 -213,213c-117.63564,0 -213,-95.36436 -213,-213c0,-117.63564 95.36436,-213 213,-213z" id="圆13" class="st2"/>
  <path fill-rule="nonZero" fill="#2f2e41" d="m0.04089,51.14237c0,77.49789 48.6181,140.20819 108.70073,140.20819" id="路径93" class="st3"/>
  <path fill-rule="nonZero" fill="#42b983" d="m108.74162,191.35056c0,-78.36865 54.255,-141.78356 121.30372,-141.78356" id="路径94" class="st4"/>
  <path fill-rule="nonZero" fill="#42b983" d="m39.42521,58.16768c0,73.61476 31.00285,133.18288 69.31641,133.18288" id="路径95" class="st5"/>
  <path fill-rule="nonZero" fill="#2f2e41" d="m108.74162,191.35056c0,-100.13772 62.7103,-181.16788 140.20819,-181.16788" id="路径96" class="st6"/>
  <path fill-rule="nonZero" fill="#a8a8a8" d="m85.87379,192.33905c0,0 15.41555,-0.47479 20.06141,-3.783c4.64586,-3.30821 23.713,-7.2585 24.86553,-1.95278c1.15253,5.30572 23.16671,26.38821 5.76263,26.5286c-17.40408,0.14039 -40.43935,-2.711 -45.07627,-5.53549c-4.63692,-2.82449 -5.6133,-15.25733 -5.6133,-15.25733z" id="路径97" class="st7"/>
  <path fill-rule="nonZero" fill-opacity="0.2" fill="#000000" d="m136.874,211.28489c-17.40408,0.14042 -40.43933,-2.71094 -45.07626,-5.53548c-3.53126,-2.151 -4.93843,-9.86945 -5.40926,-13.43043c-0.32607,0.014 -0.51463,0.02 -0.51463,0.02c0,0 0.97638,12.43276 5.61331,15.2573c4.63693,2.82454 27.67217,5.67589 45.07626,5.53547c5.02386,-0.04052 6.7592,-1.82793 6.66391,-4.47526c-0.69798,1.59951 -2.61404,2.59825 -6.35333,2.6284z" id="路径98" class="st8"/>
  <path fill-rule="nonZero" fill="#3f3d56" d="m198.60911,399.06007c103.27636,0 187,11.38997 187,25.43993c0,14.04996 -83.72364,25.43993 -187,25.43993c-103.27636,0 -187,-11.38997 -187,-25.43993c0,-14.04996 83.72364,-25.43993 187,-25.43993z" id="椭圆14" class="st9"/>
  <path fill-rule="nonZero" fill-opacity="0.1" fill="#000000" d="m198.60911,403.14134c86.70796,0 157,9.5627 157,21.35866c0,11.79596 -70.29204,21.35866 -157,21.35866c-86.70796,0 -157,-9.5627 -157,-21.35866c0,-11.79596 70.29204,-21.35866 157,-21.35866z" id="椭圆15" class="st10"/>
  <path fill-rule="nonZero" fill="#3f3d56" d="m836.60911,622c156.29524,0 283,17.23722 283,38.5c0,21.26278 -126.70476,38.5 -283,38.5c-156.29524,0 -283,-17.23722 -283,-38.5c0,-21.26278 126.70476,-38.5 283,-38.5z" id="椭圆16" class="st11"/>
  <path fill-rule="nonZero" fill="#3f3d56" d="m310.60911,622.37279c93.8876,0 170,10.35451 170,23.12721c0,12.7727 -76.1124,23.12721 -170,23.12721c-93.8876,0 -170,-10.35451 -170,-23.12721c0,-12.7727 76.1124,-23.12721 170,-23.12721z" id="椭圆17" class="st12"/>
  <path fill="none" stroke-width="2" stroke="#2f2e41" d="m462.65,626c90,23 263,-30 282,-90" id="路径99" class="st13"/>
  <path fill="none" stroke-width="2" stroke="#2f2e41" d="m309.65,259c0,0 130,-36 138,80c8,116 -107,149 -17,172" id="路径100" class="st14"/>
  <path fill="none" stroke-width="2" stroke="#2f2e41" d="m184.05233,537.28332c0,0 39.0723,-10.82 41.47675,24.04449c2.40445,34.86449 -32.15951,44.78287 -5.10946,51.69566" id="路径101" class="st15"/>
  <path fill-rule="nonZero" fill="#2f2e41" d="m778.74554,563.23988c0,0 -7.87754,50.29517 -7.87754,50.29517c0,0 -38.78182,20.60284 -11.51335,21.20881c27.26847,0.60597 155.73324,0 155.73324,0c0,0 24.84461,0 -14.54318,-21.81478c0,0 -7.87756,-52.719 -7.87756,-52.719c0,0 -113.92161,3.0298 -113.92161,3.0298z" id="路径102" class="st16"/>
  <path fill-rule="nonZero" fill-opacity="0.1" fill="#000000" d="m753.86906,634.19812c6.193,-5.51039 16.9989,-11.252 16.9989,-11.252c0,0 7.87756,-50.2952 7.87756,-50.2952c0,0 113.9216,0.10717 113.9216,0.10717c0,0 7.87756,49.582 7.87756,49.582c9.185,5.08711 14.8749,8.987 18.20362,11.97818c5.05882,-1.15422 10.58716,-5.44353 -18.20362,-21.38921c0,0 -7.87756,-52.719 -7.87756,-52.719c0,0 -113.9216,3.02983 -113.9216,3.02983c0,0 -7.87752,50.29517 -7.87752,50.29517c0,0 -32.58815,17.31462 -16.99894,20.66306z" id="路径103" class="st17"/>
  <path fill-rule="nonZero" fill="#2f2e41" d="m596.47859,212.68859c0,0 477.16178,0 477.16178,0c9.96627,0 18.04568,8.07941 18.04568,18.04568c0,0 0,321.42853 0,321.42853c0,9.96627 -8.07941,18.04568 -18.04568,18.04568c0,0 -477.16178,0 -477.16178,0c-9.96627,0 -18.04568,-8.07941 -18.04568,-18.04568c0,0 0,-321.42853 0,-321.42853c0,-9.96627 8.07941,-18.04568 18.04568,-18.04568z" id="矩形26" class="st18"/>
  <path fill-rule="nonZero" fill="#3f3d56" d="m595.70294,231.77652c0,0 478.71308,0 478.71308,0c0,0 0,267.83694 0,267.83694c0,0 -478.71308,0 -478.71308,0c0,0 0,-267.83694 0,-267.83694z" id="矩形27" class="st19"/>
  <path fill-rule="nonZero" fill="#f2f2f2" d="m835.05948,220.26316c1.67331,0 3.02983,1.35652 3.02983,3.02983c0,1.67331 -1.35652,3.02983 -3.02983,3.02983c-1.67331,0 -3.02983,-1.35652 -3.02983,-3.02983c0,-1.67331 1.35652,-3.02983 3.02983,-3.02983z" id="圆14" class="st20"/>
  <path fill-rule="nonZero" fill="#2f2e41" d="m1091.72694,520.82226c0,0 0,31.34054 0,31.34054c0.00041,3.22369 -0.80525,6.23146 -2.41698,9.02332c-1.61173,2.79186 -3.81352,4.99365 -6.60538,6.60538c-2.79186,1.61173 -5.79963,2.41739 -9.02332,2.41698c0,0 -477.16177,0 -477.16177,0c-3.22369,0.00041 -6.23146,-0.80525 -9.02332,-2.41698c-2.79187,-1.61172 -4.99366,-3.81352 -6.60539,-6.60538c-1.61173,-2.79186 -2.41739,-5.79963 -2.41698,-9.02332c0,0 0,-31.34054 0,-31.34054c0,0 513.25314,0 513.25314,0z" id="路径104" class="st21"/>
  <path fill-rule="nonZero" fill="#2f2e41" d="m968.978,667.466c0,0 0,6.06 0,6.06c0,0 -326.01,0 -326.01,0c0,0 0,-4.848 0,-4.848c0,0 0.449,-1.212 0.449,-1.212c0,0 8.035,-21.815 8.035,-21.815c0,0 310.86,0 310.86,0c0,0 6.666,21.815 6.666,21.815c0,0 0,0 0,0z" id="多边形47" class="st22"/>
  <path fill-rule="nonZero" fill="#2f2e41" d="m1094.478,661.53359c-0.59383,2.539 -2.83591,5.21743 -7.90178,7.75032c-18.179,9.08949 -55.1429,-2.42386 -55.1429,-2.42386c0,0 -28.4804,-4.84773 -28.4804,-17.573c0.8005,-0.54816 1.6327,-1.04302 2.49658,-1.48459c7.64294,-4.04351 32.98449,-14.02122 77.9177,0.42248c3.37536,1.05949 6.22238,2.92521 8.54106,5.59715c1.82082,2.13144 3.24843,4.83506 2.56974,7.7115z" id="路径105" class="st23"/>
  <path fill-rule="nonZero" fill-opacity="0.1" fill="#000000" d="m1094.478,661.53359c-22.251,8.526 -42.0843,9.1622 -62.43871,-4.975c-10.26507,-7.12617 -19.59089,-8.88955 -26.58979,-8.75618c7.64294,-4.04351 32.98449,-14.02122 77.9177,0.42248c3.37536,1.05949 6.22238,2.92521 8.54106,5.59715c1.82082,2.13149 3.24843,4.83511 2.56974,7.71155z" id="路径106" class="st24"/>
  <path fill-rule="nonZero" fill="#f2f2f2" d="m1066.53846,651.71091c4.35062,0 7.87756,1.08521 7.87756,2.42386c0,1.33865 -3.52694,2.42386 -7.87756,2.42386c-4.35062,0 -7.87756,-1.08521 -7.87756,-2.42386c0,-1.33865 3.52694,-2.42386 7.87756,-2.42386z" id="椭圆18" class="st25"/>
  <path fill-rule="nonZero" fill="#f2f2f2" d="m835.05948,534.15351c6.35859,0 11.51335,5.15476 11.51335,11.51335c0,6.35859 -5.15476,11.51335 -11.51335,11.51335c-6.35859,0 -11.51335,-5.15476 -11.51335,-11.51335c0,-6.35859 5.15476,-11.51335 11.51335,-11.51335z" id="圆15" class="st26"/>
  <path fill-rule="nonZero" fill-opacity="0.1" fill="#000000" d="m968.978,667.466c0,0 0,6.06 0,6.06c0,0 -326.01,0 -326.01,0c0,0 0,-4.848 0,-4.848c0,0 0.449,-1.212 0.449,-1.212c0,0 325.561,0 325.561,0c0,0 0,0 0,0z" id="多边形48" class="st27"/>
  <path fill-rule="nonZero" fill="#2f2e41" d="m108.60911,159c0,0 208,0 208,0c0,0 0,242 0,242c0,0 -208,0 -208,0c0,0 0,-242 0,-242z" id="矩形28" class="st28"/>
  <path fill-rule="nonZero" fill="#3f3d56" d="m87.60911,135c0,0 250,0 250,0c0,0 0,86 0,86c0,0 -250,0 -250,0c0,0 0,-86 0,-86z" id="矩形29" class="st29"/>
  <path fill-rule="nonZero" fill="#3f3d56" d="m87.60911,237c0,0 250,0 250,0c0,0 0,86 0,86c0,0 -250,0 -250,0c0,0 0,-86 0,-86z" id="矩形30" class="st30"/>
  <path fill-rule="nonZero" fill="#3f3d56" d="m87.60911,339c0,0 250,0 250,0c0,0 0,86 0,86c0,0 -250,0 -250,0c0,0 0,-86 0,-86z" id="矩形31" class="st31"/>
  <path fill-rule="nonZero" fill-opacity="0.4" fill="#42b983" d="m271.60911,150c0,0 16,0 16,0c0,0 0,16 0,16c0,0 -16,0 -16,0c0,0 0,-16 0,-16z" id="矩形32" class="st32"/>
  <path fill-rule="nonZero" fill-opacity="0.8" fill="#42b983" d="m294.60911,150c0,0 16,0 16,0c0,0 0,16 0,16c0,0 -16,0 -16,0c0,0 0,-16 0,-16z" id="矩形33" class="st33"/>
  <path fill-rule="nonZero" fill="#42b983" d="m317.60911,150c0,0 16,0 16,0c0,0 0,16 0,16c0,0 -16,0 -16,0c0,0 0,-16 0,-16z" id="矩形34" class="st34"/>
  <path fill-rule="nonZero" fill-opacity="0.4" fill="#42b983" d="m271.60911,251c0,0 16,0 16,0c0,0 0,16 0,16c0,0 -16,0 -16,0c0,0 0,-16 0,-16z" id="矩形35" class="st35"/>
  <path fill-rule="nonZero" fill-opacity="0.8" fill="#42b983" d="m294.60911,251c0,0 16,0 16,0c0,0 0,16 0,16c0,0 -16,0 -16,0c0,0 0,-16 0,-16z" id="矩形36" class="st36"/>
  <path fill-rule="nonZero" fill="#42b983" d="m317.60911,251c0,0 16,0 16,0c0,0 0,16 0,16c0,0 -16,0 -16,0c0,0 0,-16 0,-16z" id="矩形37" class="st37"/>
  <path fill-rule="nonZero" fill-opacity="0.4" fill="#42b983" d="m271.60911,352c0,0 16,0 16,0c0,0 0,16 0,16c0,0 -16,0 -16,0c0,0 0,-16 0,-16z" id="矩形38" class="st38"/>
  <path fill-rule="nonZero" fill-opacity="0.8" fill="#42b983" d="m294.60911,352c0,0 16,0 16,0c0,0 0,16 0,16c0,0 -16,0 -16,0c0,0 0,-16 0,-16z" id="矩形39" class="st39"/>
  <path fill-rule="nonZero" fill="#42b983" d="m317.60911,352c0,0 16,0 16,0c0,0 0,16 0,16c0,0 -16,0 -16,0c0,0 0,-16 0,-16z" id="矩形40" class="st40"/>
  <path fill-rule="nonZero" fill="#2f2e41" d="m316.60911,459c43.63012,0 79,35.36988 79,79c0,43.63012 -35.36988,79 -79,79c-43.63012,0 -79,-35.36988 -79,-79c0,-43.63012 35.36988,-79 79,-79z" id="圆16" class="st41"/>
  <path fill-rule="nonZero" fill="#2f2e41" d="m280.60911,600c0,0 24,0 24,0c0,0 0,43 0,43c0,0 -24,0 -24,0c0,0 0,-43 0,-43z" id="矩形41" class="st42"/>
  <path fill-rule="nonZero" fill="#2f2e41" d="m328.60911,600c0,0 24,0 24,0c0,0 0,43 0,43c0,0 -24,0 -24,0c0,0 0,-43 0,-43z" id="矩形42" class="st43"/>
  <path fill-rule="nonZero" fill="#2f2e41" d="m300.60911,636c11.0456,0 20,3.3579 20,7.5c0,4.1421 -8.9544,7.5 -20,7.5c-11.0456,0 -20,-3.3579 -20,-7.5c0,-4.1421 8.9544,-7.5 20,-7.5z" id="椭圆19" class="st44"/>
  <path fill-rule="nonZero" fill="#2f2e41" d="m348.60911,635c11.0456,0 20,3.3579 20,7.5c0,4.1421 -8.9544,7.5 -20,7.5c-11.0456,0 -20,-3.3579 -20,-7.5c0,-4.1421 8.9544,-7.5 20,-7.5z" id="椭圆20" class="st45"/>
  <path fill-rule="nonZero" fill="#ffffff" d="m318.60911,491c14.91156,0 27,12.08844 27,27c0,14.91156 -12.08844,27 -27,27c-14.91156,0 -27,-12.08844 -27,-27c0,-14.91156 12.08844,-27 27,-27z" id="圆17" class="st46"/>
  <path fill-rule="nonZero" fill="#3f3d56" d="m318.60911,509c4.97052,0 9,4.02948 9,9c0,4.97052 -4.02948,9 -9,9c-4.97052,0 -9,-4.02948 -9,-9c0,-4.97052 4.02948,-9 9,-9z" id="圆18" class="st47"/>
  <path fill-rule="nonZero" fill="#42b983" d="m240.01733,464.53228c-6.37889,-28.56758 14.01185,-57.43392 45.544,-64.47477c31.53215,-7.04085 62.2651,10.41 68.644,38.9776c6.3789,28.5676 -14.51861,39.10379 -46.05075,46.14464c-31.53214,7.04085 -61.75836,7.92011 -68.13725,-20.64747z" id="路径107" class="st48"/>
  <path fill-rule="nonZero" fill="#2f2e41" d="m380.9816,499.41326c20.05531,-8.58377 38.49821,-10.43843 41.19292,-4.14245c2.69471,6.29599 -11.37911,18.35864 -31.43443,26.94242c-20.05531,8.58377 -38.49821,10.43842 -41.19292,4.14244c-2.69471,-6.29598 11.37911,-18.35864 31.43443,-26.94241z" id="椭圆21" class="st49"/>
  <path fill-rule="nonZero" fill="#2f2e41" d="m232.97463,552.42286c20.05532,-8.58378 38.49821,-10.43843 41.19292,-4.14245c2.69472,6.29598 -11.37911,18.35864 -31.43442,26.94241c-20.05532,8.58378 -38.49821,10.43843 -41.19292,4.14245c-2.69471,-6.29599 11.37911,-18.35864 31.43442,-26.94241z" id="椭圆22" class="st50"/>
  <g id="图层5">
   <g id="图层4">
    <path fill-rule="nonZero" fill="#db380e" d="m822.95549,269.75013c-5.46112,4.2214 -11.65053,9.00604 -14.96696,16.9219c-5.76028,13.81046 11.78696,28.87473 12.53695,29.50925c0.17998,0.15237 0.38354,0.22599 0.61068,0.22085c0.22714,-0.00513 0.42777,-0.08788 0.6019,-0.24825c0.17414,-0.16027 0.28349,-0.36279 0.32806,-0.60757c0.04456,-0.24477 0.01454,-0.47795 -0.09006,-0.69952c-0.06348,-0.13447 -6.36208,-13.58086 -6.12801,-23.22725c0.08287,-3.35982 4.36095,-7.17124 8.88996,-11.20642c4.14813,-3.69598 8.85026,-7.88492 11.60137,-12.78524c6.0396,-10.78654 -0.67312,-21.39295 -0.74168,-21.499c-0.13321,-0.20567 -0.31052,-0.34208 -0.53195,-0.40923c-0.22142,-0.06715 -0.4373,-0.04998 -0.64762,0.0515c-0.21023,0.10181 -0.36764,0.26511 -0.47225,0.48991c-0.1046,0.22479 -0.13293,0.46066 -0.08499,0.70758c0.01362,0.07028 1.319,7.08422 -2.31344,14.31052c-1.49628,2.98611 -4.78431,5.52773 -8.59196,8.47097c0,0 0,0 0,0z" id="路径109" class="st51"/>
    <path fill-rule="nonZero" fill="#db380e" d="m845.96364,274.5066c0.1924,-0.15956 0.31373,-0.36888 0.36398,-0.62796c0.05026,-0.25909 0.01716,-0.50459 -0.09931,-0.73652c-0.11646,-0.23193 -0.28781,-0.39359 -0.51404,-0.48496c-0.22624,-0.09137 -0.45205,-0.09013 -0.67744,0.00373c-0.92773,0.38766 -22.71798,9.61925 -22.71798,20.77341c0,7.68905 2.9884,11.75087 5.1705,14.7172c0.85594,1.16349 1.59485,2.16817 1.83838,3.02594c0.68558,2.47186 -0.93858,6.93961 -1.62163,8.45271c-0.09864,0.21773 -0.12616,0.44582 -0.08256,0.68428c0.04361,0.23847 0.14917,0.43716 0.3167,0.5961c0.16752,0.15893 0.36179,0.24469 0.58279,0.25727c0.22101,0.01258 0.4223,-0.05065 0.60387,-0.18971c0.37465,-0.28618 9.15658,-7.11035 7.58159,-15.33219c-0.58679,-3.12514 -1.98404,-5.40849 -3.21694,-7.42342c-1.90994,-3.12185 -3.28941,-5.37678 -1.19665,-9.54161c2.45194,-4.85795 13.55632,-14.08192 13.66874,-14.17427c0,0 0,0 0,0z" id="路径110" class="st52"/>
    <path fill-rule="nonzero" fill="#40be73" d="m789.24278,321.34545c-0.37349,1.22921 -0.19713,2.44851 0.50946,3.52727c2.36215,3.60439 10.72927,5.58888 23.56099,5.58888c0,0 0.00162,0 0.00162,0c1.73866,0 3.57427,-0.03755 5.45443,-0.11163c20.51557,-0.80704 28.12486,-7.83164 28.43879,-8.13025c0.17049,-0.1628 0.27626,-0.36624 0.3173,-0.61033c0.04103,-0.24409 0.0084,-0.47564 -0.0979,-0.69465c-0.1063,-0.21901 -0.2631,-0.37776 -0.47041,-0.47624c-0.20732,-0.09848 -0.41996,-0.11524 -0.63794,-0.05028c-7.2254,2.16817 -20.71709,2.93791 -30.07519,2.93791c-10.47142,0 -15.8042,-0.82911 -17.10981,-1.4413c0.66988,-1.01102 4.80185,-2.81638 9.92203,-3.9233c0.24435,-0.0532 0.44081,-0.18967 0.58938,-0.40942c0.14857,-0.21974 0.21078,-0.46586 0.18662,-0.73834c-0.02415,-0.27248 -0.12841,-0.50077 -0.31278,-0.68486c-0.18437,-0.1841 -0.4011,-0.27633 -0.6502,-0.27669c-3.00133,0 -18.05301,0.26487 -19.62639,5.49323c0,0 0,0 0,0zm68.64932,-7.23517c-4.23146,0 -8.24409,2.33105 -8.41306,2.42974c-0.19547,0.11541 -0.33807,0.28465 -0.42779,0.5077c-0.08973,0.22305 -0.10765,0.45286 -0.05377,0.68944c0.05389,0.23658 0.1682,0.43001 0.34296,0.5803c0.17475,0.15029 0.37307,0.22573 0.59496,0.22632c0.0898,0 9.02616,0.08043 9.83547,5.69214c0.71698,4.84121 -8.4553,12.68527 -12.05011,15.29945c-0.23189,0.05411 -0.42033,0.18422 -0.56532,0.39036c-0.14499,0.20613 -0.2121,0.43934 -0.20133,0.69961c0.01078,0.26028 0.09687,0.48583 0.25828,0.67665c0.16141,0.19082 0.35982,0.3016 0.59523,0.33234c0.2354,0.03074 0.4519,-0.02585 0.64951,-0.16978c0.85317,-0.20068 20.86898,-5.04848 18.75267,-17.85681c-1.29106,-7.84964 -5.77991,-9.49746 -9.3177,-9.49746zm-13.72668,23.8577c0.03476,-0.20519 0.01626,-0.40442 -0.0555,-0.59766c-0.07176,-0.19325 -0.18538,-0.34981 -0.34084,-0.46968c0,0 -4.79932,-3.69471 -4.79932,-3.69471c-0.11709,-0.08981 -0.24592,-0.14842 -0.38651,-0.17582c-0.14059,-0.0274 -0.27991,-0.02106 -0.41796,0.01903c-0.05009,0.01395 -5.06893,1.46413 -12.35551,2.35337c-2.89191,0.35646 -6.13101,0.54471 -9.36779,0.54471c-7.28473,0 -12.04781,-0.94074 -12.74147,-1.63082c-0.09187,-0.19383 -0.06279,-0.28187 -0.0464,-0.33083c0.12604,-0.38513 0.80147,-0.84281 1.23682,-1.02396c0.24155,-0.09701 0.41969,-0.272 0.53442,-0.52496c0.11473,-0.25296 0.13463,-0.51464 0.05972,-0.78503c-0.07492,-0.27039 -0.22415,-0.47546 -0.44768,-0.61521c-0.22354,-0.13975 -0.46018,-0.17592 -0.70993,-0.1085c-4.81432,1.2769 -7.16839,3.06248 -6.99711,5.30701c0.30425,3.97962 8.69099,6.02221 15.78112,6.56209c1.01961,0.07662 2.12231,0.11544 3.27672,0.11544c0,0 0.00185,0 0.00185,0c11.78973,0 26.90396,-4.06563 27.05493,-4.10699c0.18455,-0.04957 0.34209,-0.15022 0.47261,-0.30195c0.13052,-0.15172 0.21313,-0.33023 0.24783,-0.53553c0,0 0,0 0,0zm-36.18243,8.54074c0.18168,-0.12998 0.30921,-0.30707 0.3826,-0.53126c0.07339,-0.22419 0.07774,-0.44999 0.01306,-0.67739c-0.12858,-0.45489 -0.51569,-0.75376 -0.95059,-0.74742c-0.64518,0.01878 -6.31314,0.29988 -6.70994,4.26606c-0.12004,1.18531 0.18882,2.26838 0.91849,3.21851c2.03506,2.65071 7.5285,4.22623 16.79126,4.81634c1.09578,0.07231 2.20887,0.10859 3.30881,0.10859c11.77611,0 19.70718,-4.05244 20.03936,-4.22496c0.21893,-0.11368 0.37689,-0.29246 0.47386,-0.53632c0.09698,-0.24385 0.10907,-0.4927 0.03628,-0.74652c-0.07279,-0.25382 -0.21252,-0.45007 -0.4192,-0.58874c0,0 -6.06522,-4.06944 -6.06522,-4.06944c-0.21822,-0.14564 -0.45236,-0.1902 -0.70243,-0.1337c-0.03832,0.00888 -3.88936,0.8867 -9.70113,1.75386c-1.0997,0.16441 -2.47687,0.24788 -4.09272,0.24788c-5.80553,0 -12.26295,-1.04248 -13.50138,-1.7252c-0.01801,-0.12736 0.00484,-0.28923 0.17889,-0.43029c0,0 0,0 0,0z" id="复合路径6" class="st53"/>
    <path fill-rule="nonZero" fill="#40be73" d="m816.24832,369.19786c26.97414,-0.02512 41.45149,-5.29737 44.24046,-8.61508c0.98728,-1.17364 1.09393,-2.28487 1.01013,-3.01072c-0.20729,-1.78609 -1.68764,-2.87956 -1.85546,-2.99829c-0.40488,-0.28618 -0.94827,-0.21134 -1.26406,0.18901c-0.31509,0.40034 -0.32247,0.98539 -0.00623,1.38548c0.17013,0.24052 0.26846,0.64315 -0.22899,1.19039c-1.11494,1.14446 -12.36012,4.61845 -31.08348,5.6622c-2.56483,0.14639 -5.25499,0.22098 -7.99525,0.22148c-16.76402,0 -29.03273,-2.52386 -30.64328,-3.99434c0.62072,-0.98031 4.96044,-2.54644 9.57555,-3.43238c0.26438,-0.04494 0.47558,-0.18603 0.63361,-0.42328c0.15803,-0.23724 0.21659,-0.50114 0.1757,-0.79171c-0.04089,-0.29057 -0.16926,-0.5227 -0.38512,-0.69638c-0.21586,-0.17369 -0.45598,-0.23806 -0.72035,-0.19311c-0.13019,0.01953 -0.57201,0.04845 -1.08355,0.08296c-7.61482,0.51096 -16.41453,1.64984 -16.87367,5.96208c-0.13942,1.31394 0.21584,2.50686 1.05631,3.54502c2.05652,2.53959 7.96755,5.91616 35.44675,5.91616c0,0 0.00093,0.00051 0.00093,0.00051c0,0 0,0 0,0z" id="路径115" class="st54"/>
    <path fill-rule="nonZero" fill="#40be73" d="m865.78693,361.51769c-0.19021,-0.09691 -0.38817,-0.12311 -0.59387,-0.07861c-0.20571,0.04451 -0.37986,0.15122 -0.52245,0.32013c-0.03948,0.04694 -4.09504,4.70776 -16.28873,7.44474c-4.66821,1.02801 -13.43075,1.54938 -26.04433,1.54938c-12.63713,0 -24.66209,-0.54648 -24.78189,-0.55207c-0.5023,-0.02689 -0.93189,0.37447 -1.00021,0.91791c-0.03421,0.27158 0.01908,0.52053 0.15985,0.74687c0.14077,0.22634 0.33248,0.37131 0.57513,0.43489c0.12511,0.03247 12.72715,3.27737 29.9577,3.27737c8.26416,0 16.30604,-0.73752 23.90263,-2.19329c14.16434,-2.72911 15.15601,-10.44835 15.19133,-10.77563c0.02468,-0.22879 -0.01411,-0.44375 -0.11639,-0.64486c-0.10227,-0.20112 -0.24853,-0.35006 -0.43877,-0.44683c0,0 0,0 0,0z" id="路径116" class="st55"/>
   </g>
  </g>
  <path fill-rule="nonZero" fill="#ffffff" d="m362.65,561c0,7.732 -19.90861,23 -42,23c-22.09139,0 -43,-14.268 -43,-22c0,-7.732 20.90861,-6 43,-6c22.09139,0 42,-2.732 42,5z" id="路径108" class="st56"/>
  <text style="cursor: move;" fill="#FFFF91" stroke-width="0" x="706.21602" y="466.09999" id="svg_10" font-size="100" font-family="'Bodoni Moda'" text-anchor="start" xml:space="preserve" font-weight="bold" font-style="normal" stroke="#000000" transform="matrix(1.07808 0 0 1.01964 -75.562 -9.9434)">zzdxy</text>
 </g>

</svg>